<?xml version="1.0" encoding="UTF-8" standalone="no"?>
<svg
   xmlns:dc="http://purl.org/dc/elements/1.1/"
   xmlns:cc="http://creativecommons.org/ns#"
   xmlns:rdf="http://www.w3.org/1999/02/22-rdf-syntax-ns#"
   xmlns:svg="http://www.w3.org/2000/svg"
   xmlns="http://www.w3.org/2000/svg"
   xmlns:xlink="http://www.w3.org/1999/xlink"
   xmlns:sodipodi="http://sodipodi.sourceforge.net/DTD/sodipodi-0.dtd"
   xmlns:inkscape="http://www.inkscape.org/namespaces/inkscape"
   viewBox="0 0 400 400"
   version="1.1"
   id="svg40"
   sodipodi:docname="buttongreen.svg"
   inkscape:version="0.92.3 (2405546, 2018-03-11)">
  <metadata
     id="metadata44">
    <rdf:RDF>
      <cc:Work
         rdf:about="">
        <dc:format>image/svg+xml</dc:format>
        <dc:type
           rdf:resource="http://purl.org/dc/dcmitype/StillImage" />
        <dc:title></dc:title>
      </cc:Work>
    </rdf:RDF>
  </metadata>
  <sodipodi:namedview
     pagecolor="#ffffff"
     bordercolor="#666666"
     gradstopcolor1="#FF8400"
     gradstopcolor2="#F02E1C"
     borderopacity="1"
     objecttolerance="10"
     gridtolerance="10"
     guidetolerance="10"
     inkscape:pageopacity="0"
     inkscape:pageshadow="2"
     inkscape:window-width="751"
     inkscape:window-height="480"
     id="namedview42"
     showgrid="false"
     inkscape:zoom="0.59"
     inkscape:cx="200"
     inkscape:cy="200"
     inkscape:window-x="868"
     inkscape:window-y="142"
     inkscape:window-maximized="0"
     inkscape:current-layer="svg40" />
  <defs
     id="defs22">
    <filter
       id="b">
      <feGaussianBlur
         stdDeviation=".53036"
         id="feGaussianBlur2" />
    </filter>
    <linearGradient
       id="a">
      <stop
         stop-color="#fff"
         offset="0"
         id="stop5" />
      <stop
         stop-color="#fff"
         stop-opacity="0"
         offset="1"
         id="stop7" />
    </linearGradient>
    <linearGradient
       id="e"
       x1="275.61"
       x2="342"
       y1="300.86"
       y2="391.45"
       gradientUnits="userSpaceOnUse">              
      <stop
         stop-color="#FF8400"
         offset="0"
         id="stop10" />
      <stop
         stop-color="#F02E1C"
         offset="1"
         id="stop12" />
    </linearGradient>
    <linearGradient
       id="f"
       x1="241.41"
       x2="315.47"
       y1="287.49"
       y2="367.88"
       gradientUnits="userSpaceOnUse"
       xlink:href="#a" />
    <linearGradient
       id="d"
       x1="299.02"
       x2="341.96"
       y1="866.54"
       y2="916.36"
       gradientUnits="userSpaceOnUse"
       xlink:href="#a" />
    <radialGradient
       id="c"
       cx="312.78"
       cy="386.57"
       r="53.036"
       gradientTransform="matrix(-.59327 -.59327 .71505 -.71505 243.27 849.03)"
       gradientUnits="userSpaceOnUse">
      <stop
         stop-color="#fff"
         stop-opacity=".40816"
         offset="0"
         id="stop17" />
      <stop
         stop-color="#fff"
         stop-opacity="0"
         offset="1"
         id="stop19" />
    </radialGradient>
  </defs>
  <g
     transform="matrix(2.9052 0 0 2.9052 -770.2 -2412.5)"
     id="g38">
    
    
    
    <path
       transform="matrix(.80587 0 0 .80587 90.008 624.02)"
       d="m356.79 346.11c0 29.291-23.745 53.036-53.036 53.036s-53.036-23.745-53.036-53.036 23.745-53.036 53.036-53.036 53.036 23.745 53.036 53.036z"
       fill="url(#e)"
       id="path32" />
    <path
       transform="matrix(.75825 0 0 .75825 105.73 642.52)"
       d="m356.79 346.11c0 29.291-23.745 53.036-53.036 53.036s-53.036-23.745-53.036-53.036 23.745-53.036 53.036-53.036 53.036 23.745 53.036 53.036z"
       fill="url(#c)"
       id="path34" />
    <path
       d="m333.79 862.76c-13.331 0.30069-26.186 7.358-33.336 19.742-7.6903 13.32-6.7139 29.266 1.1545 41.331 0.85306-26.532 21.132-46.515 46.324-45.054 8.2589 0.47907 16.054 3.2001 22.859 7.5908-3.2578-7.4498-8.8171-13.953-16.394-18.327-6.4867-3.7451-13.625-5.4393-20.608-5.2818z"
       fill="url(#d)"
       opacity=".31771"
       id="path36" />
  </g>
</svg>
