<?xml version="1.0" encoding="UTF-8" standalone="no"?>
<svg
   xmlns:dc="http://purl.org/dc/elements/1.1/"
   xmlns:cc="http://creativecommons.org/ns#"
   xmlns:rdf="http://www.w3.org/1999/02/22-rdf-syntax-ns#"
   xmlns:svg="http://www.w3.org/2000/svg"
   xmlns="http://www.w3.org/2000/svg"
   xmlns:xlink="http://www.w3.org/1999/xlink"
   id="svg40"
   version="1.1"
   viewBox="0 0 400 400">
  <metadata
     id="metadata44">
    <rdf:RDF>
      <cc:Work
         rdf:about="">
        <dc:format>image/svg+xml</dc:format>
        <dc:type
           rdf:resource="http://purl.org/dc/dcmitype/StillImage" />
        <dc:title></dc:title>
      </cc:Work>
    </rdf:RDF>
  </metadata>
  <defs
     id="defs22">
    <filter
       id="b">
      <feGaussianBlur
         id="feGaussianBlur2"
         stdDeviation=".53036" />
    </filter>
    <linearGradient
       id="a">
      <stop
         id="stop5"
         offset="0"
         stop-color="#fff" />
      <stop
         id="stop7"
         offset="1"
         stop-opacity="0"
         stop-color="#fff" />
    </linearGradient>
    <linearGradient
       gradientUnits="userSpaceOnUse"
       y2="391.45"
       y1="300.86"
       x2="342"
       x1="275.61"
       id="e">
      <stop
         id="stop10"
         offset="0"
         stop-color="#FFDD26" />
      <stop
         id="stop12"
         offset="1"
         stop-color="#F0AA26" />
    </linearGradient>
    <linearGradient
       xlink:href="#a"
       gradientUnits="userSpaceOnUse"
       y2="367.88"
       y1="287.49"
       x2="315.47"
       x1="241.41"
       id="f" />
    <linearGradient
       xlink:href="#a"
       gradientUnits="userSpaceOnUse"
       y2="916.36"
       y1="866.54"
       x2="341.96"
       x1="299.02"
       id="d" />
    <radialGradient
       gradientUnits="userSpaceOnUse"
       gradientTransform="matrix(-0.59327,-0.59327,0.71505,-0.71505,243.27,849.03)"
       r="53.036"
       cy="386.57"
       cx="312.78"
       id="c">
      <stop
         id="stop17"
         offset="0"
         stop-opacity=".40816"
         stop-color="#fff" />
      <stop
         id="stop19"
         offset="1"
         stop-opacity="0"
         stop-color="#fff" />
    </radialGradient>
  </defs>
  <g
     id="g38"
     transform="matrix(2.9012552,0,0,2.9012552,-771.32352,-2419.6584)">
    <path
       style="fill:url(#e)"
       id="path32"
       d="m 356.79,346.11 c 0,29.291 -23.745,53.036 -53.036,53.036 -29.291,0 -53.036,-23.745 -53.036,-53.036 0,-29.291 23.745,-53.036 53.036,-53.036 29.291,0 53.036,23.745 53.036,53.036 z"
       transform="matrix(0.80587,0,0,0.80587,90.008,624.02)" />
    <path
       style="fill:url(#c)"
       id="path34"
       d="m 356.79,346.11 c 0,29.291 -23.745,53.036 -53.036,53.036 -29.291,0 -53.036,-23.745 -53.036,-53.036 0,-29.291 23.745,-53.036 53.036,-53.036 29.291,0 53.036,23.745 53.036,53.036 z"
       transform="matrix(0.75825,0,0,0.75825,105.73,642.52)" />
    <path
       style="opacity:0.31771001;fill:url(#d)"
       id="path36"
       d="m 333.79,862.76 c -13.331,0.30069 -26.186,7.358 -33.336,19.742 -7.6903,13.32 -6.7139,29.266 1.1545,41.331 0.85306,-26.532 21.132,-46.515 46.324,-45.054 8.2589,0.47907 16.054,3.2001 22.859,7.5908 -3.2578,-7.4498 -8.8171,-13.953 -16.394,-18.327 -6.4867,-3.7451 -13.625,-5.4393 -20.608,-5.2818 z" />
  </g>
</svg>
