<?xml version="1.0" encoding="UTF-8" standalone="no"?>
<svg
   xmlns:dc="http://purl.org/dc/elements/1.1/"
   xmlns:cc="http://creativecommons.org/ns#"
   xmlns:rdf="http://www.w3.org/1999/02/22-rdf-syntax-ns#"
   xmlns:svg="http://www.w3.org/2000/svg"
   xmlns="http://www.w3.org/2000/svg"
   xmlns:xlink="http://www.w3.org/1999/xlink"
   xmlns:sodipodi="http://sodipodi.sourceforge.net/DTD/sodipodi-0.dtd"
   xmlns:inkscape="http://www.inkscape.org/namespaces/inkscape"
   viewBox="0 0 400 400"
   version="1.1"
   id="svg40"
   sodipodi:docname="buttoninner2.svg"
   inkscape:version="0.92.3 (2405546, 2018-03-11)">
  <metadata
     id="metadata44">
    <rdf:RDF>
      <cc:Work
         rdf:about="">
        <dc:format>image/svg+xml</dc:format>
        <dc:type
           rdf:resource="http://purl.org/dc/dcmitype/StillImage" />
        <dc:title />
      </cc:Work>
    </rdf:RDF>
  </metadata>
  <sodipodi:namedview
     pagecolor="#ffffff"
     bordercolor="#666666"
     gradstopcolor1="#FF8400"
     gradstopcolor2="#F02E1C"
     borderopacity="1"
     objecttolerance="10"
     gridtolerance="10"
     guidetolerance="10"
     inkscape:pageopacity="0"
     inkscape:pageshadow="2"
     inkscape:window-width="1447"
     inkscape:window-height="767"
     id="namedview42"
     showgrid="false"
     inkscape:zoom="0.59"
     inkscape:cx="-105.08475"
     inkscape:cy="200"
     inkscape:window-x="2239"
     inkscape:window-y="120"
     inkscape:window-maximized="0"
     inkscape:current-layer="svg40" />
  <defs
     id="defs22">
    <filter
       id="b">
      <feGaussianBlur
         stdDeviation=".53036"
         id="feGaussianBlur2" />
    </filter>
    <linearGradient
       id="a">
      <stop
         stop-color="#fff"
         offset="0"
         id="stop5" />
      <stop
         stop-color="#fff"
         stop-opacity="0"
         offset="1"
         id="stop7" />
    </linearGradient>
    <linearGradient
       id="e"
       x1="275.61"
       x2="342"
       y1="300.86"
       y2="391.45"
       gradientUnits="userSpaceOnUse">
      <stop
         stop-color="#FF8400"
         offset="0"
         id="stop10" />
      <stop
         stop-color="#F02E1C"
         offset="1"
         id="stop12" />
    </linearGradient>
    <linearGradient
       id="f"
       x1="241.41"
       x2="315.47"
       y1="287.49"
       y2="367.88"
       gradientUnits="userSpaceOnUse"
       xlink:href="#a" />
    <linearGradient
       id="d"
       x1="299.02"
       x2="341.96"
       y1="866.54"
       y2="916.36"
       gradientUnits="userSpaceOnUse"
       xlink:href="#a" />
    <radialGradient
       id="c"
       cx="312.78"
       cy="386.57"
       r="53.036"
       gradientTransform="matrix(-0.59327,-0.59327,0.71505,-0.71505,243.27,849.03)"
       gradientUnits="userSpaceOnUse">
      <stop
         stop-color="#fff"
         stop-opacity=".40816"
         offset="0"
         id="stop17" />
      <stop
         stop-color="#fff"
         stop-opacity="0"
         offset="1"
         id="stop19" />
    </radialGradient>
  </defs>
  <g
     transform="matrix(2.9012552,0,0,2.9012552,-771.32352,-2419.6584)"
     id="g38">
    <path
       transform="matrix(0.80587,0,0,0.80587,90.008,624.02)"
       d="m 356.79,346.11 c 0,29.291 -23.745,53.036 -53.036,53.036 -29.291,0 -53.036,-23.745 -53.036,-53.036 0,-29.291 23.745,-53.036 53.036,-53.036 29.291,0 53.036,23.745 53.036,53.036 z"
       id="path32"
       style="fill:url(#e)"
       inkscape:connector-curvature="0" />
    <path
       transform="matrix(0.75825,0,0,0.75825,105.73,642.52)"
       d="m 356.79,346.11 c 0,29.291 -23.745,53.036 -53.036,53.036 -29.291,0 -53.036,-23.745 -53.036,-53.036 0,-29.291 23.745,-53.036 53.036,-53.036 29.291,0 53.036,23.745 53.036,53.036 z"
       id="path34"
       style="fill:url(#c)"
       inkscape:connector-curvature="0" />
    <path
       d="m 333.79,862.76 c -13.331,0.30069 -26.186,7.358 -33.336,19.742 -7.6903,13.32 -6.7139,29.266 1.1545,41.331 0.85306,-26.532 21.132,-46.515 46.324,-45.054 8.2589,0.47907 16.054,3.2001 22.859,7.5908 -3.2578,-7.4498 -8.8171,-13.953 -16.394,-18.327 -6.4867,-3.7451 -13.625,-5.4393 -20.608,-5.2818 z"
       id="path36"
       style="opacity:0.31771001;fill:url(#d)"
       inkscape:connector-curvature="0" />
  </g>
</svg>
