<?xml version="1.0" encoding="UTF-8" standalone="no"?>
<svg
   xmlns:dc="http://purl.org/dc/elements/1.1/"
   xmlns:cc="http://creativecommons.org/ns#"
   xmlns:rdf="http://www.w3.org/1999/02/22-rdf-syntax-ns#"
   xmlns:svg="http://www.w3.org/2000/svg"
   xmlns="http://www.w3.org/2000/svg"
   xmlns:xlink="http://www.w3.org/1999/xlink"
   viewBox="0 0 400 400"
   version="1.1"
   id="svg40">
  <metadata
     id="metadata44">
    <rdf:RDF>
      <cc:Work
         rdf:about="">
        <dc:format>image/svg+xml</dc:format>
        <dc:type
           rdf:resource="http://purl.org/dc/dcmitype/StillImage" />
        <dc:title></dc:title>
      </cc:Work>
    </rdf:RDF>
  </metadata>
  <defs
     id="defs22">
    <filter
       id="b">
      <feGaussianBlur
         stdDeviation=".53036"
         id="feGaussianBlur2" />
    </filter>
    <linearGradient
       id="a">
      <stop
         stop-color="#fff"
         offset="0"
         id="stop5" />
      <stop
         stop-color="#fff"
         stop-opacity="0"
         offset="1"
         id="stop7" />
    </linearGradient>
    <linearGradient
       id="e"
       x1="275.61"
       x2="342"
       y1="300.86"
       y2="391.45"
       gradientUnits="userSpaceOnUse"
       gradientTransform="matrix(2.3482266,0,0,2.3482279,-508.28351,-602.50886)">
      <stop
         stop-color="#FF2200"
         offset="0"
         id="stop10" />
      <stop
         stop-color="#F02E1C"
         offset="1"
         id="stop12" />
    </linearGradient>
    <linearGradient
       id="f"
       x1="241.41"
       x2="315.47"
       y1="287.49"
       y2="367.88"
       gradientUnits="userSpaceOnUse"
       xlink:href="#a"
       gradientTransform="matrix(2.7961808,0,0,2.7961824,-644.34819,-757.52856)" />
    <linearGradient
       id="d"
       x1="299.02"
       x2="341.96"
       y1="866.54"
       y2="916.36"
       gradientUnits="userSpaceOnUse"
       xlink:href="#a"
       gradientTransform="matrix(2.9139025,0,0,2.9139041,-770.55805,-2420.8433)" />
    <radialGradient
       id="c"
       cx="312.78"
       cy="386.57"
       r="53.036"
       gradientTransform="matrix(-1.3108102,-1.310811,1.5798791,-1.57988,75.0258,1327.3028)"
       gradientUnits="userSpaceOnUse">
      <stop
         stop-color="#fff"
         stop-opacity=".40816"
         offset="0"
         id="stop17" />
      <stop
         stop-color="#fff"
         stop-opacity="0"
         offset="1"
         id="stop19" />
    </radialGradient>
  </defs>
  <g
     id="g4560"
     transform="translate(-4.9999931,-10.250072)">
    <g
       id="g4550">
      <path
         style="fill:#999999;stroke-width:2.83680129"
         id="path24"
         d="m 355.45061,210.24289 c 0,83.09277 -67.35983,150.45264 -150.45256,150.45264 -83.09273,0 -150.452557,-67.35987 -150.452557,-150.45264 0,-83.09277 67.359827,-150.452642 150.452557,-150.452642 83.09273,0 150.45256,67.359872 150.45256,150.452642 z" />
    </g>
    <path
       d="m 353.30116,210.25813 c 0,81.90298 -66.39532,148.29833 -148.29825,148.29833 -81.90293,0 -148.298242,-66.39535 -148.298242,-148.29833 0,-81.90298 66.395312,-148.298329 148.298242,-148.298329 81.90293,0 148.29825,66.395349 148.29825,148.298329 z"
       id="path26"
       style="fill:url(#f);stroke-width:2.79618168" />
    <path
       transform="matrix(2.5454395,0,0,2.5454409,-568.18752,-670.7525)"
       d="m 356.79,346.11 c 0,29.291 -23.745,53.036 -53.036,53.036 -29.291,0 -53.036,-23.745 -53.036,-53.036 0,-29.291 23.745,-53.036 53.036,-53.036 29.291,0 53.036,23.745 53.036,53.036 z"
       id="path28"
       style="fill:#ececec;filter:url(#b)" />
    <path
       transform="matrix(2.4429576,0,0,2.4429589,-537.06413,-635.29028)"
       d="m 356.79,346.11 c 0,29.291 -23.745,53.036 -53.036,53.036 -29.291,0 -53.036,-23.745 -53.036,-53.036 0,-29.291 23.745,-53.036 53.036,-53.036 29.291,0 53.036,23.745 53.036,53.036 z"
       id="path30"
       style="fill:#999999;filter:url(#b)" />
    <path
       d="m 329.54026,210.2363 c 0,68.78194 -55.75864,124.54061 -124.54055,124.54061 -68.7819,0 -124.540543,-55.75867 -124.540543,-124.54061 0,-68.78194 55.758643,-124.540616 124.540543,-124.540616 68.78191,0 124.54055,55.758676 124.54055,124.540616 z"
       id="path32"
       style="fill:url(#e);stroke-width:2.34822726" />
    <path
       d="m 325.84445,216.11726 c 0,64.71752 -52.46379,117.18133 -117.18127,117.18133 -64.71749,0 -117.181273,-52.46381 -117.181273,-117.18133 0,-64.71752 52.463783,-117.181334 117.181273,-117.181334 64.71748,0 117.18127,52.463814 117.18127,117.181334 z"
       id="path34"
       style="fill:url(#c);stroke-width:2.20946717" />
    <path
       d="m 202.07347,93.156601 c -38.84524,0.876182 -76.30346,21.440509 -97.13786,57.526299 -22.408783,38.8132 -19.563648,85.27831 3.3641,120.43457 2.48574,-77.31171 61.57659,-135.54025 134.98362,-131.28304 24.06563,1.39597 46.77979,9.32479 66.6089,22.11886 -9.49291,-21.708 -25.69217,-40.6577 -47.77052,-53.40312 C 243.2201,97.637312 222.41979,92.700575 202.07201,93.159515 Z"
       id="path36"
       style="opacity:0.31771001;fill:url(#d);stroke-width:2.91390324" />
  </g>
</svg>
