<?xml version="1.0" encoding="UTF-8" standalone="no"?>
<svg
   xmlns:dc="http://purl.org/dc/elements/1.1/"
   xmlns:cc="http://creativecommons.org/ns#"
   xmlns:rdf="http://www.w3.org/1999/02/22-rdf-syntax-ns#"
   xmlns:svg="http://www.w3.org/2000/svg"
   xmlns="http://www.w3.org/2000/svg"
   xmlns:xlink="http://www.w3.org/1999/xlink"
   viewBox="0 0 400 400"
   version="1.1"
   id="svg40">
  <metadata
     id="metadata44">
    <rdf:RDF>
      <cc:Work
         rdf:about="">
        <dc:format>image/svg+xml</dc:format>
        <dc:type
           rdf:resource="http://purl.org/dc/dcmitype/StillImage" />
        <dc:title></dc:title>
      </cc:Work>
    </rdf:RDF>
  </metadata>
  <defs
     id="defs22">
    <filter
       id="b">
      <feGaussianBlur
         stdDeviation=".53036"
         id="feGaussianBlur2" />
    </filter>
    <linearGradient
       id="a">
      <stop
         stop-color="#fff"
         offset="0"
         id="stop5" />
      <stop
         stop-color="#fff"
         stop-opacity="0"
         offset="1"
         id="stop7" />
    </linearGradient>
    <linearGradient
       id="e"
       x1="275.61"
       x2="342"
       y1="300.86"
       y2="391.45"
       gradientUnits="userSpaceOnUse">
      <stop
         stop-color="#FFDD26"
         offset="0"
         id="stop10" />
      <stop
         stop-color="#F0AA26"
         offset="1"
         id="stop12" />
    </linearGradient>
    <linearGradient
       id="f"
       x1="241.41"
       x2="315.47"
       y1="287.49"
       y2="367.88"
       gradientUnits="userSpaceOnUse"
       xlink:href="#a" />
    <linearGradient
       id="d"
       x1="299.02"
       x2="341.96"
       y1="866.54"
       y2="916.36"
       gradientUnits="userSpaceOnUse"
       xlink:href="#a" />
    <radialGradient
       id="c"
       cx="312.78"
       cy="386.57"
       r="53.036"
       gradientTransform="matrix(-0.59327,-0.59327,0.71505,-0.71505,243.27,849.03)"
       gradientUnits="userSpaceOnUse">
      <stop
         stop-color="#fff"
         stop-opacity=".40816"
         offset="0"
         id="stop17" />
      <stop
         stop-color="#fff"
         stop-opacity="0"
         offset="1"
         id="stop19" />
    </radialGradient>
  </defs>
  <g
     transform="matrix(2.9012552,0,0,2.9012552,-771.32352,-2419.6584)"
     id="g38">
    <path
       transform="matrix(0.80587,0,0,0.80587,90.008,624.02)"
       d="m 356.79,346.11 c 0,29.291 -23.745,53.036 -53.036,53.036 -29.291,0 -53.036,-23.745 -53.036,-53.036 0,-29.291 23.745,-53.036 53.036,-53.036 29.291,0 53.036,23.745 53.036,53.036 z"
       id="path32"
       style="fill:url(#e)" />
    <path
       transform="matrix(0.75825,0,0,0.75825,105.73,642.52)"
       d="m 356.79,346.11 c 0,29.291 -23.745,53.036 -53.036,53.036 -29.291,0 -53.036,-23.745 -53.036,-53.036 0,-29.291 23.745,-53.036 53.036,-53.036 29.291,0 53.036,23.745 53.036,53.036 z"
       id="path34"
       style="fill:url(#c)" />
    <path
       d="m 333.79,862.76 c -13.331,0.30069 -26.186,7.358 -33.336,19.742 -7.6903,13.32 -6.7139,29.266 1.1545,41.331 0.85306,-26.532 21.132,-46.515 46.324,-45.054 8.2589,0.47907 16.054,3.2001 22.859,7.5908 -3.2578,-7.4498 -8.8171,-13.953 -16.394,-18.327 -6.4867,-3.7451 -13.625,-5.4393 -20.608,-5.2818 z"
       id="path36"
       style="opacity:0.31771001;fill:url(#d)" />
  </g>
  <polyline
     transform="matrix(1.0668279,0,0,1.0171733,79.277755,79.216532)"
     id="Fill-2"
     points="132.134 13.84 130.707 27.483 136.417 14.793 132.134 13.84"
     style="fill:#0525d9;fill-opacity:1;fill-rule:evenodd;stroke:none;stroke-width:1" />
  <polyline
     transform="matrix(1.0668279,0,0,1.0171733,79.277755,79.216532)"
     id="Fill-3"
     points="170.099 30.337 163.436 43.768 173.799 33.299 170.099 30.337"
     style="fill:#0525d9;fill-opacity:1;fill-rule:evenodd;stroke:none;stroke-width:1" />
  <polyline
     transform="matrix(1.0668279,0,0,1.0171733,79.277755,79.216532)"
     id="Fill-4"
     points="155.513 13.352 159.701 15.201 144.554 45.002 155.513 13.352"
     style="fill:#0525d9;fill-opacity:1;fill-rule:evenodd;stroke:none;stroke-width:1" />
  <polyline
     transform="matrix(1.0668279,0,0,1.0171733,79.277755,79.216532)"
     id="Fill-5"
     points="91.624 15.075 93.05 28.717 87.34 16.028 91.624 15.075"
     style="fill:#0525d9;fill-opacity:1;fill-rule:evenodd;stroke:none;stroke-width:1" />
  <polyline
     transform="matrix(1.0668279,0,0,1.0171733,79.277755,79.216532)"
     id="Fill-6"
     points="53.659 31.572 60.321 45.003 49.957 34.533 53.659 31.572"
     style="fill:#0525d9;fill-opacity:1;fill-rule:evenodd;stroke:none;stroke-width:1" />
  <polyline
     transform="matrix(1.0668279,0,0,1.0171733,79.277755,79.216532)"
     id="Fill-7"
     points="68.244 14.587 64.057 16.435 79.261 43.979 68.244 14.587"
     style="fill:#0525d9;fill-opacity:1;fill-rule:evenodd;stroke:none;stroke-width:1" />
  <polyline
     transform="matrix(1.0668279,0,0,1.0171733,79.277755,79.216532)"
     id="Fill-8"
     points="112.893 0.337 108.319 0.472 112.032 31.714 112.893 0.337"
     style="fill:#0525d9;fill-opacity:1;fill-rule:evenodd;stroke:none;stroke-width:1" />
  <polyline
     transform="matrix(1.0668279,0,0,1.0171733,79.277755,79.216532)"
     id="Fill-9"
     points="110.606 236.285 115.18 236.15 111.468 204.908 110.606 236.285"
     style="fill:#0525d9;fill-opacity:1;fill-rule:evenodd;stroke:none;stroke-width:1" />
  <polyline
     transform="matrix(1.0668279,0,0,1.0171733,79.277755,79.216532)"
     id="Fill-10"
     points="129.597 222.771 128.169 209.131 133.879 221.82 129.597 222.771"
     style="fill:#0525d9;fill-opacity:1;fill-rule:evenodd;stroke:none;stroke-width:1" />
  <polyline
     transform="matrix(1.0668279,0,0,1.0171733,79.277755,79.216532)"
     id="Fill-11"
     points="167.56 206.277 160.899 192.846 171.262 203.314 167.56 206.277"
     style="fill:#0525d9;fill-opacity:1;fill-rule:evenodd;stroke:none;stroke-width:1" />
  <polyline
     transform="matrix(1.0668279,0,0,1.0171733,79.277755,79.216532)"
     id="Fill-12"
     points="152.976 223.26 157.163 221.414 142.017 191.611 152.976 223.26"
     style="fill:#0525d9;fill-opacity:1;fill-rule:evenodd;stroke:none;stroke-width:1" />
  <polyline
     transform="matrix(1.0668279,0,0,1.0171733,79.277755,79.216532)"
     id="Fill-13"
     points="91.202 222.174 92.627 208.531 86.919 221.221 91.202 222.174"
     style="fill:#0525d9;fill-opacity:1;fill-rule:evenodd;stroke:none;stroke-width:1" />
  <polyline
     transform="matrix(1.0668279,0,0,1.0171733,79.277755,79.216532)"
     id="Fill-14"
     points="53.235 205.676 59.899 192.246 49.537 202.715 53.235 205.676"
     style="fill:#0525d9;fill-opacity:1;fill-rule:evenodd;stroke:none;stroke-width:1" />
  <polyline
     transform="matrix(1.0668279,0,0,1.0171733,79.277755,79.216532)"
     id="Fill-15"
     points="67.821 222.662 63.635 220.814 78.781 191.012 67.821 222.662"
     style="fill:#0525d9;fill-opacity:1;fill-rule:evenodd;stroke:none;stroke-width:1" />
  <polyline
     transform="matrix(1.0668279,0,0,1.0171733,79.277755,79.216532)"
     id="Fill-16"
     points="6.766 100.201 20.437 101.321 7.62 95.899 6.766 100.201"
     style="fill:#0525d9;fill-opacity:1;fill-rule:evenodd;stroke:none;stroke-width:1" />
  <polyline
     transform="matrix(1.0668279,0,0,1.0171733,79.277755,79.216532)"
     id="Fill-17"
     points="22.4 61.875 35.979 68.233 25.279 58.108 22.4 61.875"
     style="fill:#0525d9;fill-opacity:1;fill-rule:evenodd;stroke:none;stroke-width:1" />
  <polyline
     transform="matrix(1.0668279,0,0,1.0171733,79.277755,79.216532)"
     id="Fill-18"
     points="5.752 76.839 7.502 72.612 37.64 87.083 5.752 76.839"
     style="fill:#0525d9;fill-opacity:1;fill-rule:evenodd;stroke:none;stroke-width:1" />
  <polyline
     transform="matrix(1.0668279,0,0,1.0171733,79.277755,79.216532)"
     id="Fill-19"
     points="8.231 138.575 21.838 136.84 9.282 142.835 8.231 138.575"
     style="fill:#0525d9;fill-opacity:1;fill-rule:evenodd;stroke:none;stroke-width:1" />
  <polyline
     transform="matrix(1.0668279,0,0,1.0171733,79.277755,79.216532)"
     id="Fill-20"
     points="25.584 176.156 38.859 169.193 28.625 179.791 25.584 176.156"
     style="fill:#0525d9;fill-opacity:1;fill-rule:evenodd;stroke:none;stroke-width:1" />
  <polyline
     transform="matrix(1.0668279,0,0,1.0171733,79.277755,79.216532)"
     id="Fill-21"
     points="8.272 161.959 10.215 166.104 39.665 150.289 8.272 161.959"
     style="fill:#0525d9;fill-opacity:1;fill-rule:evenodd;stroke:none;stroke-width:1" />
  <polyline
     transform="matrix(1.0668279,0,0,1.0171733,79.277755,79.216532)"
     id="Fill-22"
     points="215.704 98.024 202.096 99.76 214.654 93.765 215.704 98.024"
     style="fill:#0525d9;fill-opacity:1;fill-rule:evenodd;stroke:none;stroke-width:1" />
  <polyline
     transform="matrix(1.0668279,0,0,1.0171733,79.277755,79.216532)"
     id="Fill-23"
     points="198.352 60.443 185.076 67.407 195.311 56.809 198.352 60.443"
     style="fill:#0525d9;fill-opacity:1;fill-rule:evenodd;stroke:none;stroke-width:1" />
  <polyline
     transform="matrix(1.0668279,0,0,1.0171733,79.277755,79.216532)"
     id="Fill-24"
     points="215.663 74.64 213.719 70.496 184.27 86.312 215.663 74.64"
     style="fill:#0525d9;fill-opacity:1;fill-rule:evenodd;stroke:none;stroke-width:1" />
  <polyline
     transform="matrix(1.0668279,0,0,1.0171733,79.277755,79.216532)"
     id="Fill-25"
     points="215.97 136.426 202.297 135.306 215.115 140.728 215.97 136.426"
     style="fill:#0525d9;fill-opacity:1;fill-rule:evenodd;stroke:none;stroke-width:1" />
  <polyline
     transform="matrix(1.0668279,0,0,1.0171733,79.277755,79.216532)"
     id="Fill-26"
     points="200.331 174.752 186.756 168.395 197.458 178.518 200.331 174.752"
     style="fill:#0525d9;fill-opacity:1;fill-rule:evenodd;stroke:none;stroke-width:1" />
  <polyline
     transform="matrix(1.0668279,0,0,1.0171733,79.277755,79.216532)"
     id="Fill-27"
     points="216.984 159.788 215.231 164.016 185.094 149.544 216.984 159.788"
     style="fill:#0525d9;fill-opacity:1;fill-rule:evenodd;stroke:none;stroke-width:1" />
  <polyline
     transform="matrix(1.0668279,0,0,1.0171733,79.277755,79.216532)"
     id="Fill-28"
     points="195.75 196.166 192.656 199.539 169.292 175.627 195.75 196.166"
     style="fill:#0525d9;fill-opacity:1;fill-rule:evenodd;stroke:none;stroke-width:1" />
  <polyline
     transform="matrix(1.0668279,0,0,1.0171733,79.277755,79.216532)"
     id="Fill-29"
     points="225.643 113.517 225.37 118.085 192.157 114.273 225.643 113.517"
     style="fill:#0525d9;fill-opacity:1;fill-rule:evenodd;stroke:none;stroke-width:1" />
  <polyline
     transform="matrix(1.0668279,0,0,1.0171733,79.277755,79.216532)"
     id="Fill-30"
     points="189.453 34.41 192.79 37.542 168.619 60.636 189.453 34.41"
     style="fill:#0525d9;fill-opacity:1;fill-rule:evenodd;stroke:none;stroke-width:1" />
  <polyline
     transform="matrix(1.0668279,0,0,1.0171733,79.277755,79.216532)"
     id="Fill-31"
     points="9.336 160.9 11.088 165.127 41.225 150.656 9.336 160.9"
     style="fill:#0525d9;fill-opacity:1;fill-rule:evenodd;stroke:none;stroke-width:1" />
  <polyline
     transform="matrix(1.0668279,0,0,1.0171733,79.277755,79.216532)"
     id="Fill-32"
     points="30.57 197.277 33.664 200.65 57.027 176.74 30.57 197.277"
     style="fill:#0525d9;fill-opacity:1;fill-rule:evenodd;stroke:none;stroke-width:1" />
  <polyline
     transform="matrix(1.0668279,0,0,1.0171733,79.277755,79.216532)"
     id="Fill-33"
     points="0.677 114.628 0.951 119.197 34.163 115.385 0.677 114.628"
     style="fill:#0525d9;fill-opacity:1;fill-rule:evenodd;stroke:none;stroke-width:1" />
  <polyline
     transform="matrix(1.0668279,0,0,1.0171733,79.277755,79.216532)"
     id="Fill-34"
     points="36.868 35.522 33.53 38.653 57.702 61.748 36.868 35.522"
     style="fill:#0525d9;fill-opacity:1;fill-rule:evenodd;stroke:none;stroke-width:1" />
  <text
     id="text895"
     y="109.24001"
     x="186.84634"
     style="font-style:normal;font-weight:normal;font-size:6.4000001px;line-height:1.25;font-family:sans-serif;letter-spacing:0px;word-spacing:0px;fill:#0525d9;fill-opacity:1;stroke:none;stroke-width:0.60000002"
     xml:space="preserve"><tspan
       style="stroke-width:0.60000002"
       y="115.07893"
       x="186.84634"
       id="tspan893" /></text>
  <text
     id="text899"
     y="109.84255"
     x="191.06413"
     style="font-style:normal;font-variant:normal;font-weight:bold;font-stretch:normal;font-size:7.99999952px;line-height:1.25;font-family:sans-serif;-inkscape-font-specification:'sans-serif Bold';letter-spacing:0px;word-spacing:0px;fill:#0525d9;fill-opacity:1;stroke:none;stroke-width:0.60000002"
     xml:space="preserve"><tspan
       style="stroke-width:0.60000002"
       y="117.1412"
       x="191.06413"
       id="tspan897" /></text>
  <text
     id="text903"
     y="105.62476"
     x="197.08955"
     style="font-style:normal;font-variant:normal;font-weight:bold;font-stretch:normal;font-size:7.99999952px;line-height:1.25;font-family:sans-serif;-inkscape-font-specification:'sans-serif Bold';letter-spacing:0px;word-spacing:0px;fill:#0525d9;fill-opacity:1;stroke:none;stroke-width:0.60000002"
     xml:space="preserve"><tspan
       style="stroke-width:0.60000002"
       y="112.9234"
       x="197.08955"
       id="tspan901" /></text>
  <text
     id="text907"
     y="103.21459"
     x="194.07684"
     style="font-style:normal;font-variant:normal;font-weight:bold;font-stretch:normal;font-size:7.99999952px;line-height:1.25;font-family:sans-serif;-inkscape-font-specification:'sans-serif Bold';letter-spacing:0px;word-spacing:0px;fill:#0525d9;fill-opacity:1;stroke:none;stroke-width:0.60000002"
     xml:space="preserve"><tspan
       style="stroke-width:0.60000002"
       y="110.51323"
       x="194.07684"
       id="tspan905" /></text>
</svg>
