<?xml version="1.0" encoding="UTF-8" standalone="no"?>
<svg
   xmlns:dc="http://purl.org/dc/elements/1.1/"
   xmlns:cc="http://creativecommons.org/ns#"
   xmlns:rdf="http://www.w3.org/1999/02/22-rdf-syntax-ns#"
   xmlns:svg="http://www.w3.org/2000/svg"
   xmlns="http://www.w3.org/2000/svg"
   height="320"
   width="80"
   xml:space="preserve"
   viewBox="0 0 80 320"
   y="0px"
   x="0px"
   id="Layer_1"
   version="1.1"><metadata
   id="metadata67"><rdf:RDF><cc:Work
       rdf:about=""><dc:format>image/svg+xml</dc:format><dc:type
         rdf:resource="http://purl.org/dc/dcmitype/StillImage" /><dc:title></dc:title></cc:Work></rdf:RDF></metadata><defs
   id="defs65" />



























<g
   transform="translate(-160,-39.999994)"
   id="g4709"><polygon
     style="fill:#008cf4"
     points="284,285.6 112,386.4 212,216 284,216 "
     id="polygon12"
     transform="matrix(-0.56497175,0.58823529,-0.56497175,-0.58823529,481.80791,201.41176)" /><polyline
     style="fill:#00a6f9"
     points="112,386.4 212,216 280,216 "
     id="polyline14"
     transform="matrix(-0.56497175,0.58823529,-0.56497175,-0.58823529,481.80791,201.41176)" /><polygon
     style="fill:#e0055f"
     points="212,216 384,114.4 284,285.6 212,285.6 "
     id="polygon16"
     transform="matrix(-0.56497175,0.58823529,-0.56497175,-0.58823529,481.80791,201.41176)" /><polyline
     style="fill:#c9055e"
     points="384,114.4 284,285.6 212.8,284 "
     id="polyline18"
     transform="matrix(-0.56497175,0.58823529,-0.56497175,-0.58823529,481.80791,201.41176)" /><polygon
     style="fill:#3c09db;fill-opacity:0.77314812"
     points="284,285.6 284,216 212,216 212,285.6 "
     id="polygon20"
     transform="matrix(-0.56497175,0.58823529,-0.56497175,-0.58823529,481.80791,201.41176)" /><g
     id="g26"
     transform="matrix(-0.56497175,0.58823529,-0.56497175,-0.58823529,481.80791,201.41176)">
	<polyline
   style="fill:#2906bc"
   points="212,285.6 284,285.6 284,216  "
   id="polyline22" />
	<circle
   style="fill:#2906bc"
   cx="245.60001"
   cy="250.39999"
   r="8.8000002"
   id="circle24" />
</g><circle
     style="fill:#f0eeff;stroke-width:0.81560642"
     cx="-5.8723664"
     cy="-285.13599"
     id="circle28"
     r="0"
     transform="matrix(-0.69270145,0.72122445,-0.69270145,-0.72122445,0,0)" /><path
     style="fill:#d7d5ef;stroke-width:0.77436614"
     d="m 206.15418,204.23383 c -2.62141,2.63518 -6.99044,2.63518 -9.61185,0 -2.62141,-2.63518 -2.62141,-7.02713 0,-9.66231"
     id="path30" /><g
     id="g32"
     transform="matrix(-0.56497175,0.58823529,-0.56497175,-0.58823529,481.80791,201.41176)">
</g><g
     id="g34"
     transform="matrix(-0.56497175,0.58823529,-0.56497175,-0.58823529,481.80791,201.41176)">
</g><g
     id="g36"
     transform="matrix(-0.56497175,0.58823529,-0.56497175,-0.58823529,481.80791,201.41176)">
</g><g
     id="g38"
     transform="matrix(-0.56497175,0.58823529,-0.56497175,-0.58823529,481.80791,201.41176)">
</g><g
     id="g40"
     transform="matrix(-0.56497175,0.58823529,-0.56497175,-0.58823529,481.80791,201.41176)">
</g><g
     id="g42"
     transform="matrix(-0.56497175,0.58823529,-0.56497175,-0.58823529,481.80791,201.41176)">
</g><g
     id="g44"
     transform="matrix(-0.56497175,0.58823529,-0.56497175,-0.58823529,481.80791,201.41176)">
</g><g
     id="g46"
     transform="matrix(-0.56497175,0.58823529,-0.56497175,-0.58823529,481.80791,201.41176)">
</g><g
     id="g48"
     transform="matrix(-0.56497175,0.58823529,-0.56497175,-0.58823529,481.80791,201.41176)">
</g><g
     id="g50"
     transform="matrix(-0.56497175,0.58823529,-0.56497175,-0.58823529,481.80791,201.41176)">
</g><g
     id="g52"
     transform="matrix(-0.56497175,0.58823529,-0.56497175,-0.58823529,481.80791,201.41176)">
</g><g
     id="g54"
     transform="matrix(-0.56497175,0.58823529,-0.56497175,-0.58823529,481.80791,201.41176)">
</g><g
     id="g56"
     transform="matrix(-0.56497175,0.58823529,-0.56497175,-0.58823529,481.80791,201.41176)">
</g><g
     id="g58"
     transform="matrix(-0.56497175,0.58823529,-0.56497175,-0.58823529,481.80791,201.41176)">
</g><g
     id="g60"
     transform="matrix(-0.56497175,0.58823529,-0.56497175,-0.58823529,481.80791,201.41176)">
</g></g>
</svg>